<svg xmlns="http://www.w3.org/2000/svg" width="32" height="32" viewBox="0 0 32 32">
  <defs>
    <linearGradient id="planeBodyGradient" x1="0%" y1="0%" x2="100%" y2="100%">
      <stop offset="0%" style="stop-color:#64B5F6; stop-opacity:1" />
      <stop offset="100%" style="stop-color:#1A73E8; stop-opacity:1" />
    </linearGradient>
    <filter id="iconDropShadow" x="-20%" y="-20%" width="140%" height="140%">
      <feGaussianBlur in="SourceAlpha" stdDeviation="0.6"/>
      <feOffset dx="0.5" dy="0.8" result="offsetblur"/>
      <feComponentTransfer>
        <feFuncA type="linear" slope="0.4"/>
      </feComponentTransfer>
      <feMerge>
        <feMergeNode/>
        <feMergeNode in="SourceGraphic"/>
      </feMerge>
    </filter>
  </defs>

  <g id="airplane-group" transform="rotate(-15 16 16)">
    <g filter="url(#iconDropShadow)">
      <!-- 机身 (Fuselage) -->
      <path d="M3,16 C3,14 9,12.5 17,12.5 L25,12.5 C28.5,12.5 30,14 30,16 C30,18 28.5,19.5 25,19.5 L17,19.5 C9,19.5 3,18 3,16 Z" fill="url(#planeBodyGradient)"/>
      
      <!-- 主机翼 (Main Wing) -->
      <path d="M8,13 L23,6 L25,9 L11,18 Z" fill="#42A5F5"/>
      
      <!-- 垂直尾翼 (Tail Fin) - 机身上方 -->
      <!-- 调整连接点使其更平滑地连接到机身顶部12.5的高度 -->
      <path d="M5.5,12.5 L4,9 L9,12.5 Z" fill="#42A5F5"/> 
      
      <!-- 水平尾翼 (Horizontal Stabilizer) -->
      <path d="M2.5,16.5 L8,14 L8,19 Z" fill="#64B5F6"/>
      
      <!-- 驾驶舱窗户 (Cockpit Window) -->
      <ellipse cx="25" cy="16" rx="3.2" ry="1.9" fill="#B3E5FC" opacity="0.75"/>

      <!-- 代表特价的金色星星 (Gold star for special offer on Tail Fin) -->
      <!-- 星星位于垂直尾翼 (M5.5,12.5 L4,9 L9,12.5 Z) 的中心区域 -->
      <!-- 尾翼中心大约在 x=6, y=11 -->
      <path d="M6,10 L6.3,10.7 L7.1,10.8 L6.5,11.3 L6.7,12 L6,11.6 L5.3,12 L5.5,11.3 L4.9,10.8 L5.7,10.7 Z" fill="#FFD700" stroke="#E6A200" stroke-width="0.2"/>
    </g>
  </g>
</svg>